<?xml version="1.0" encoding="utf-8"?>
<!-- Generator: Adobe Illustrator 22.0.1, SVG Export Plug-In . SVG Version: 6.00 Build 0)  -->
<svg version="1.1" id="Layer_1" xmlns="http://www.w3.org/2000/svg" xmlns:xlink="http://www.w3.org/1999/xlink" x="0px" y="0px"
	 viewBox="0 0 35.2 29.9" style="enable-background:new 0 0 35.2 29.9;" xml:space="preserve">
<style type="text/css">
	.st0{fill:#FFFFFF;}
	.st1{fill:#1DA1F2;}
</style>
<g>
	<path class="st0" d="M-64.1-81.4C-64.1-81.4-64.1-81.4-64.1-81.4L-64.1-81.4L-64.1-81.4C-64.1-81.4-64.1-81.4-64.1-81.4
		c0.1,0,0.3,0,0.4,0c0,0,0,0,0,0c0,0,0.1,0,0.1,0c0,0,0,0,0,0c0,0,0.1,0,0.1,0c0,0,0,0,0,0c0.1,0,0.1,0,0.2,0c0,0,0,0,0,0
		c0,0,0.1,0,0.1,0.1c0,0,0,0,0,0c0,0,0.1,0,0.1,0.1c0,0,0,0,0,0c0,0,0.1,0.1,0.1,0.1c-0.4-0.4-1-0.4-1.5-0.4
		C-64.2-81.4-64.1-81.4-64.1-81.4C-64.1-81.4-64.1-81.4-64.1-81.4z"/>
	<polygon class="st0" points="-64.6,-81.4 -64.6,-81.4 -64.6,-81.4 	"/>
	<path class="st0" d="M-64.6-81.4l0.5,0c0,0,0,0,0,0c0,0-0.1,0-0.1,0c-0.1,0-0.1,0-0.2,0C-64.5-81.4-64.5-81.4-64.6-81.4
		C-64.6-81.4-64.6-81.4-64.6-81.4z"/>
	<path class="st0" d="M-80.1-81.4l5.2,0c-0.4,0-0.9,0-1.3,0C-77.5-81.4-78.8-81.4-80.1-81.4L-80.1-81.4
		C-80.1-81.4-80.1-81.4-80.1-81.4z"/>
	<path class="st1" d="M-80.1-81.4L-80.1-81.4c-0.1,0-0.3,0-0.4,0c-0.1,0,0.1,0.3,0.2,0.4C-80.4-81.1-80.3-81.4-80.1-81.4z"/>
	<polygon class="st0" points="-64.1,-81.4 -64.1,-81.4 -64.1,-81.4 	"/>
	<path class="st1" d="M-63.7-81.3c-0.1,0-0.3,0-0.4,0C-64-81.4-63.8-81.4-63.7-81.3z"/>
	<path class="st1" d="M-74.9-81.4L-74.9-81.4c-0.4,0-0.9,0-1.3,0c0,0,0,0,0,0C-75.8-81.4-75.3-81.4-74.9-81.4z"/>
	<path class="st1" d="M-64.2-81.4c-0.1,0-0.1,0-0.2,0C-64.4-81.4-64.3-81.4-64.2-81.4C-64.2-81.4-64.2-81.4-64.2-81.4z"/>
	<path class="st1" d="M-76.7-81.4c-1.2,0-2.3,0-3.5,0c1.3,0,2.6,0,3.9,0C-76.4-81.4-76.5-81.4-76.7-81.4z"/>
	<path class="st1" d="M-80.5-81.4c-0.1,0-0.1,0.1,0,0.2c0.1,0.1,0.2,0.2,0.2,0.2C-80.4-81.1-80.6-81.4-80.5-81.4z"/>
	<path class="st1" d="M-76.2-81.4c-0.1,0-0.3,0-0.4,0C-76.5-81.4-76.4-81.4-76.2-81.4C-76.2-81.4-76.2-81.4-76.2-81.4z"/>
	<path class="st0" d="M-64.6-81.4C-64.6-81.4-64.6-81.4-64.6-81.4L-64.6-81.4C-64.6-81.4-64.6-81.4-64.6-81.4z"/>
	<path class="st0" d="M-64.1-81.4C-64.1-81.4-64.1-81.4-64.1-81.4C-64.1-81.4-64.1-81.4-64.1-81.4L-64.1-81.4
		C-64.1-81.4-64.1-81.4-64.1-81.4z"/>
	<path class="st0" d="M-64.1-81.4L-64.1-81.4C-64.1-81.4-64.1-81.4-64.1-81.4L-64.1-81.4z"/>
	<path class="st0" d="M-80.2-80.9L-80.2-80.9l0.6,0.6l-0.3-0.3C-80-80.7-80.1-80.8-80.2-80.9z"/>
	<path class="st0" d="M-80.3-81C-80.3-81-80.3-81-80.3-81L-80.3-81L-80.3-81C-80.2-80.9-80.3-80.9-80.3-81z"/>
	<path class="st0" d="M-73.4-81.4c-0.5,0-1,0-1.5,0h0C-74.4-81.4-73.9-81.4-73.4-81.4z"/>
	<polygon class="st0" points="-78.8,-79.4 -78.8,-79.4 -78.8,-79.4 	"/>
	<path class="st0" d="M-78.8-79.4C-78.8-79.4-78.8-79.4-78.8-79.4C-78.8-79.4-78.8-79.4-78.8-79.4C-78.8-79.4-78.8-79.4-78.8-79.4
		l-0.8-0.8l1,1c0,0,0,0,0,0C-78.7-79.3-78.8-79.4-78.8-79.4z"/>
	<path class="st0" d="M-78.7-79.2c0-0.1-0.1-0.1-0.1-0.2c0,0,0,0,0,0C-78.8-79.4-78.7-79.3-78.7-79.2z"/>
	<polygon class="st0" points="-78.8,-79.4 -78.8,-79.4 -78.8,-79.4 	"/>
	<polygon class="st0" points="-78.8,-79.4 -78.8,-79.4 -78.8,-79.4 	"/>
	<polygon class="st0" points="-78.8,-79.4 -78.8,-79.4 -78.8,-79.4 	"/>
	<path class="st0" d="M-79-79.7C-79-79.7-79-79.7-79-79.7c-0.1-0.1-0.2-0.2-0.2-0.2c-0.2-0.2-0.4-0.5-0.7-0.7l0.3,0.3l0.8,0.8
		C-78.9-79.5-79-79.6-79-79.7z"/>
</g>
<path class="st0" d="M34.1,15.4c-0.3-0.9-0.7-1.8-1.2-2.6c-0.5-0.8-1-1.5-0.7-2.6c0.1-0.2,0.1-0.4,0.2-0.7c0.4-1.3,0.3-3.5-0.1-4.8
	c-0.3-0.8-0.7-1.6-1.3-2.3c-0.6-0.7-1.3-1.1-2-1.4c-1.6-0.6-3.6-0.5-5.4-0.5c-3.2,0-6.4,0-9.5,0c-2.5,0-5,0-7.4,0c-1,0-2.1,0-3.1,0
	c-0.2,0-0.4,0-0.6,0c-0.6,0-1.2,0-1.8,0c0,0,0,0,0,0C0.4,0.4,0,1.3,0.4,1.9c0.4,0.6,0.9,1.2,1.4,1.8c0.7,0.9,1.4,1.7,2.1,2.6
	c0.6,0.8,1.2,1.5,1.8,2.3c0,0,0.1,0.1,0.1,0.1C6.1,9.1,6.5,9.6,6.5,10v15c0,0,0,2.7,0,2.7c0,2,2.5,1.8,3.8,1.8c6.8,0,13.6,0,20.3,0
	c0.2,0,0.5,0,0.7-0.1c0.9-0.3,1.6-2,2-2.8c0.6-1.2,1-2.4,1.2-3.7C35.1,20.2,35,17.9,34.1,15.4z M30.4,21.6c-0.1,0.5-0.2,0.9-0.4,1.3
	c0,0.1-0.1,0.2-0.1,0.4c-0.2,0.5-0.4,1.2-0.7,1.5C29,24.9,28.9,25,28.8,25H12.2c-0.8,0-1.5-0.7-1.5-1.5c0-3.2,0-6.1,0-9.3
	c0-1.1,0-2.2,0.1-3.3c0-0.6,0-1.1,0-1.7c0-0.1,0-0.3,0-0.4c0-0.4-0.1-0.8-0.3-1.2c0-0.1-0.1-0.2-0.1-0.2c0,0,0,0,0-0.1
	c0-0.1-0.1-0.1-0.1-0.2c0,0,0,0,0-0.1c0-0.1-0.1-0.1-0.1-0.2c0,0,0,0,0,0C10,6.9,10,6.8,9.9,6.8c0,0,0,0,0,0c0,0,0,0,0,0
	c0,0,0,0,0,0l0,0c0,0,0,0,0,0C9.9,6.7,9.8,6.6,9.7,6.5c0,0,0,0,0,0C9.6,6.4,9.5,6.3,9.4,6.2C9.2,6,9,5.7,8.7,5.5
	C8.6,5.4,8.5,5.3,8.4,5.2c0,0-0.1-0.1-0.1-0.1c-0.1-0.2,0-0.4,0.2-0.4c0,0,0,0,0,0l5.7,0c0.6,0,1.1,0,1.7,0c-0.5,0-1.1,0-1.6,0
	c-0.5,0-1,0-1.5,0c2.8,0,5.5,0,8.3,0c1.5,0,3,0,4.5,0c0,0-0.1,0-0.1,0c0,0,0,0,0,0c0,0,0,0,0,0c0,0,0,0,0,0l0.5,0c0,0,0,0,0,0
	c0,0,0,0,0,0c0.1,0,0.3,0,0.4,0c0,0,0,0,0,0c0.1,0,0.1,0,0.2,0c0,0,0,0,0,0c0.1,0,0.1,0,0.2,0c0,0,0,0,0,0c0.1,0,0.1,0,0.2,0.1
	c0,0,0,0,0,0c0,0,0.1,0,0.1,0.1c0,0,0,0,0.1,0c0,0,0.1,0,0.1,0.1c0,0,0,0,0,0c0,0,0.1,0.1,0.1,0.1c0.2,0.2,0.4,0.5,0.5,0.7
	c0.1,0.3,0.3,0.6,0.3,1c0.1,1-0.6,2-1.6,2.1c0,0,0,0,0,0c0,0-9,0-9,0h-2c-1,0-0.8,0.8-0.8,1.8v2.5c0,0,0,6.6,0,6.6
	c0,0.8-0.2,1.5,0.8,1.5c2.7,0,5.3,0,8,0c0.4,0,0.9,0,1.3,0c0.2,0,0.4,0,0.6-0.1c0.3-0.1,0.4-0.2,0.6-0.4c0.4-0.4,0.7-1,0.6-1.6
	c0-0.3-0.1-0.7-0.3-1c-0.1-0.3-0.3-0.5-0.5-0.7c0,0-0.1-0.1-0.1-0.1c0,0,0,0,0,0c0,0,0,0,0,0c-0.3-0.3-0.8-0.3-1.2-0.3c0,0,0,0,0,0
	h0c0,0,0,0,0,0c-0.4,0-0.7,0-1.1,0h-1.7h0h0c-0.2,0-0.4-0.1-0.5-0.3l-2.5-3.1c-0.2-0.2,0-0.4,0.2-0.4l2.7,0c0.2,0,0.4,0,0.6,0
	c1.4,0,2.7,0,4.1,0c0.6,0,1.3,0,1.9,0c0.4,0,0.7,0.1,0.9,0.4c0.9,1.7,1.5,3.5,1.6,5.4C30.6,20,30.6,20.7,30.4,21.6z"/>
</svg>
