<?xml version="1.0" encoding="utf-8"?>
<!-- Generator: Adobe Illustrator 22.0.1, SVG Export Plug-In . SVG Version: 6.00 Build 0)  -->
<svg version="1.1" id="Layer_1" xmlns="http://www.w3.org/2000/svg" xmlns:xlink="http://www.w3.org/1999/xlink" x="0px" y="0px"
	 viewBox="0 0 36 36" style="enable-background:new 0 0 36 36;" xml:space="preserve">
<style type="text/css">
	.st0{fill:#1DA1F2;}
	.st1{fill:#FFFFFF;}
</style>
<rect class="st0" width="36" height="36"/>
<g>
	<path class="st1" d="M-15.7-79.3C-15.7-79.3-15.7-79.3-15.7-79.3L-15.7-79.3L-15.7-79.3C-15.7-79.3-15.7-79.3-15.7-79.3
		c0.1,0,0.3,0,0.4,0c0,0,0,0,0,0c0,0,0.1,0,0.1,0c0,0,0,0,0,0c0,0,0.1,0,0.1,0c0,0,0,0,0,0c0.1,0,0.1,0,0.2,0c0,0,0,0,0,0
		c0,0,0.1,0,0.1,0.1c0,0,0,0,0,0c0,0,0.1,0,0.1,0.1c0,0,0,0,0,0c0,0,0.1,0.1,0.1,0.1c-0.4-0.4-1-0.4-1.5-0.4
		C-15.8-79.3-15.8-79.3-15.7-79.3C-15.7-79.3-15.7-79.3-15.7-79.3z"/>
	<polygon class="st1" points="-16.2,-79.3 -16.2,-79.3 -16.2,-79.3 	"/>
	<path class="st1" d="M-16.2-79.3l0.5,0c0,0,0,0,0,0c0,0-0.1,0-0.1,0c-0.1,0-0.1,0-0.2,0C-16.1-79.3-16.1-79.3-16.2-79.3
		C-16.2-79.3-16.2-79.3-16.2-79.3z"/>
	<path class="st1" d="M-31.7-79.3l5.2,0c-0.4,0-0.9,0-1.3,0C-29.1-79.3-30.4-79.3-31.7-79.3L-31.7-79.3
		C-31.7-79.3-31.7-79.3-31.7-79.3z"/>
	<path class="st0" d="M-31.7-79.3L-31.7-79.3c-0.1,0-0.3,0-0.4,0c-0.1,0,0.1,0.3,0.2,0.4C-32-79.1-31.9-79.3-31.7-79.3z"/>
	<polygon class="st1" points="-15.7,-79.3 -15.7,-79.3 -15.7,-79.3 	"/>
	<path class="st0" d="M-15.3-79.3c-0.1,0-0.3,0-0.4,0C-15.6-79.3-15.5-79.3-15.3-79.3z"/>
	<path class="st0" d="M-26.5-79.3L-26.5-79.3c-0.4,0-0.9,0-1.3,0c0,0,0,0,0,0C-27.4-79.3-26.9-79.3-26.5-79.3z"/>
	<path class="st0" d="M-15.9-79.3c-0.1,0-0.1,0-0.2,0C-16-79.3-15.9-79.3-15.9-79.3C-15.8-79.3-15.8-79.3-15.9-79.3z"/>
	<path class="st0" d="M-28.3-79.3c-1.2,0-2.3,0-3.5,0c1.3,0,2.6,0,3.9,0C-28-79.3-28.1-79.3-28.3-79.3z"/>
	<path class="st0" d="M-32.2-79.3c-0.1,0-0.1,0.1,0,0.2c0.1,0.1,0.2,0.2,0.2,0.2C-32-79-32.3-79.3-32.2-79.3z"/>
	<path class="st0" d="M-27.8-79.3c-0.1,0-0.3,0-0.4,0C-28.1-79.3-28-79.3-27.8-79.3C-27.8-79.3-27.8-79.3-27.8-79.3z"/>
	<path class="st1" d="M-16.2-79.3C-16.2-79.3-16.2-79.3-16.2-79.3L-16.2-79.3C-16.2-79.3-16.2-79.3-16.2-79.3z"/>
	<path class="st1" d="M-15.7-79.3C-15.7-79.3-15.7-79.3-15.7-79.3C-15.7-79.3-15.7-79.3-15.7-79.3L-15.7-79.3
		C-15.7-79.3-15.7-79.3-15.7-79.3z"/>
	<path class="st1" d="M-15.7-79.3L-15.7-79.3C-15.7-79.3-15.7-79.3-15.7-79.3L-15.7-79.3z"/>
	<path class="st1" d="M-31.8-78.8L-31.8-78.8l0.6,0.6l-0.3-0.3C-31.6-78.6-31.7-78.7-31.8-78.8z"/>
	<path class="st1" d="M-31.9-78.9C-31.9-78.9-31.9-78.9-31.9-78.9L-31.9-78.9L-31.9-78.9C-31.9-78.8-31.9-78.9-31.9-78.9z"/>
	<path class="st1" d="M-25-79.3c-0.5,0-1,0-1.5,0h0C-26-79.3-25.5-79.3-25-79.3z"/>
	<polygon class="st1" points="-30.4,-77.4 -30.4,-77.4 -30.4,-77.4 	"/>
	<path class="st1" d="M-30.4-77.4C-30.4-77.4-30.4-77.4-30.4-77.4C-30.4-77.4-30.4-77.4-30.4-77.4C-30.4-77.4-30.4-77.4-30.4-77.4
		l-0.8-0.8l1,1c0,0,0,0,0,0C-30.3-77.2-30.4-77.3-30.4-77.4z"/>
	<path class="st1" d="M-30.3-77.2c0-0.1-0.1-0.1-0.1-0.2c0,0,0,0,0,0C-30.4-77.3-30.3-77.2-30.3-77.2z"/>
	<polygon class="st1" points="-30.4,-77.4 -30.4,-77.4 -30.4,-77.4 	"/>
	<polygon class="st1" points="-30.4,-77.4 -30.4,-77.4 -30.4,-77.4 	"/>
	<polygon class="st1" points="-30.4,-77.4 -30.4,-77.4 -30.4,-77.4 	"/>
	<path class="st1" d="M-30.6-77.6C-30.7-77.6-30.7-77.6-30.6-77.6c-0.1-0.1-0.2-0.2-0.2-0.2c-0.2-0.2-0.4-0.5-0.7-0.7l0.3,0.3
		l0.8,0.8C-30.5-77.4-30.6-77.5-30.6-77.6z"/>
</g>
<g>
	<polygon class="st1" points="21.4,19.5 21.4,19.5 21.4,19.5 	"/>
	<path class="st1" d="M31.8,18.2c-0.1-0.1-0.1-0.2-0.2-0.3c-0.4-0.7-1.2-1.7-1.8-2.3c-0.7-0.8,0.3-1.3,0.7-2
		c1.3-2.3-0.7-4.5-2.1-6.2c-0.1-0.1-0.1-0.2-0.2-0.3c-0.6-0.8-1.4-1.5-2.3-1.6c-0.8-0.1-1.6,0-2.4,0c-0.3,0-0.6,0-0.9,0
		c-0.7,0-1.4,0-2.1,0c-1.7,0-3.4,0-5,0c-0.1,0-0.1,0-0.2,0c-2.1,0-4.3,0-6.4,0c-0.9,0-1.8,0-2.7,0c-0.2,0-0.3,0-0.5,0
		c-0.5,0-1,0-1.6,0l-0.6,0C3.1,5.5,2.8,6,3.1,6.3c0.5,0.7,1,1.4,1.5,2.1c0.6,0.7,1.2,1.5,1.8,2.2c0.5,0.7,1,1.3,1.5,2
		c0,0,0.1,0.1,0.1,0.1c0.2,0.3,0.6,0.7,0.6,1v2.8l0,0c0,0,0,0,0,0v10.1c0,0,0,2.3,0,2.3c0,1.7,2.1,1.5,3.3,1.5c5.9,0,11.8,0,17.7,0
		c0.1,0,0.2,0,0.4,0c1.2-0.3,1.9-2.4,2.2-3.5c0.5-1.5,0.8-3,0.8-4.5C33,20.9,32.4,19.5,31.8,18.2z M29.2,23.8
		c-0.1,0.4-0.2,0.8-0.3,1.2c0,0.1-0.1,0.2-0.1,0.3c-0.2,0.4-0.3,1-0.6,1.3c-0.1,0.1-0.2,0.1-0.2,0.1l-14.6,0c-0.6,0-1.1-0.5-1-1.1
		c0-2.9,0-5.4,0-8.3c0-0.9,0-1.9,0-2.8c0-0.5,0-1,0-1.4c0-0.1,0-0.3,0-0.4c0-0.3-0.1-0.7-0.2-1c0-0.1-0.1-0.1-0.1-0.2c0,0,0,0,0-0.1
		c0,0-0.1-0.1-0.1-0.1c0,0,0,0,0,0c0,0,0,0,0,0c0,0-0.1-0.1-0.1-0.1c0,0,0,0,0,0c0-0.1-0.1-0.1-0.1-0.2c-0.1-0.1-0.1-0.2-0.2-0.2
		c0,0,0,0,0,0c-0.1-0.1-0.1-0.1-0.2-0.2c-0.2-0.2-0.4-0.4-0.6-0.6c-0.1-0.1-0.2-0.2-0.3-0.3c0,0-0.1-0.1-0.1-0.1
		c-0.1-0.1,0-0.4,0.2-0.4c0,0,13.6,0,14.3,0c0.5,0,0.9,0.2,1.2,0.6c0.4,0.4,0.8,1,1.1,1.4c0,0,0,0,0,0.1c0.3,0.4,0.1,1-0.3,1.3
		c-0.2,0.1-0.4,0.2-0.7,0.2c0,0,0,0,0,0c0,0-1,0-2.2,0c-0.4,0-0.9,0-1.4,0c-2,0-4.2,0-4.2,0h-1.7c0,0-0.1,0-0.1,0
		c-0.7,0.1-0.6,0.7-0.6,1.5c0,0,0,7.8,0,7.8c0,0.6-0.2,1.2,0.7,1.3c1.5,0,8,0,8,0c0,0,0,0,0,0c0,0,0,0,0.1,0
		c0.8-0.1,1.4-0.9,0.9-1.6c-0.3-0.4-0.7-1-1.1-1.4c-0.1-0.1-0.1-0.1-0.2-0.2c-0.1-0.1-0.1-0.1-0.2-0.2c-0.2-0.2-0.5-0.2-0.8-0.2
		c-0.2,0-0.3,0-0.5,0c-0.4,0-0.8,0-1.2,0c-0.1,0-0.2-0.1-0.3-0.1L19,16.8c-0.1-0.1,0-0.4,0.2-0.4l2.4,0c0.2,0,0.4,0,0.5,0
		c1.1,0,2.2,0,3.2,0c0.9,0,1.4,0.9,1.9,1.5c0.7,0.9,1.5,1.9,1.9,2.9C29.5,21.8,29.4,22.8,29.2,23.8z"/>
</g>
</svg>
