<?xml version="1.0" encoding="utf-8"?>
<!-- Generator: Adobe Illustrator 22.0.1, SVG Export Plug-In . SVG Version: 6.00 Build 0)  -->
<svg version="1.1" id="Layer_1" xmlns="http://www.w3.org/2000/svg" xmlns:xlink="http://www.w3.org/1999/xlink" x="0px" y="0px"
	 viewBox="0 0 35 29.7" style="enable-background:new 0 0 35 29.7;" xml:space="preserve">
<style type="text/css">
	.st0{fill:#333333;}
</style>
<path class="st0" d="M34.1,15.3c-0.3-0.9-0.7-1.8-1.2-2.6c-0.5-0.8-1-1.5-0.7-2.6c0.1-0.2,0.1-0.4,0.2-0.7c0.4-1.3,0.3-3.5-0.1-4.8
	C32,3.7,31.6,2.9,31,2.3c-0.6-0.7-1.3-1.1-2-1.4c-1.6-0.6-3.6-0.5-5.4-0.5c-3.2,0-6.4,0-9.5,0c-2.5,0-5,0-7.4,0c-1,0-2.1,0-3.1,0
	c-0.2,0-0.4,0-0.6,0c-0.6,0-1.2,0-1.8,0c0,0,0,0,0,0c-0.8,0-1.3,0.9-0.8,1.5c0.4,0.6,0.9,1.2,1.4,1.8c0.7,0.9,1.4,1.7,2.1,2.6
	c0.6,0.8,1.2,1.5,1.8,2.3c0,0,0.1,0.1,0.1,0.1C6,9.1,6.5,9.6,6.5,9.9v15c0,0,0,2.7,0,2.7c0,2,2.5,1.8,3.8,1.8c6.8,0,13.6,0,20.3,0
	c0.2,0,0.5,0,0.7-0.1c0.9-0.3,1.6-2,2-2.8c0.6-1.2,1-2.4,1.2-3.7C35.1,20.2,34.9,17.8,34.1,15.3z M30.3,21.6
	c-0.1,0.5-0.2,0.9-0.4,1.3c0,0.1-0.1,0.2-0.1,0.4c-0.2,0.5-0.4,1.2-0.7,1.5c-0.1,0.1-0.2,0.2-0.3,0.2H12.1c-0.8,0-1.5-0.7-1.5-1.5
	c0-3.2,0-6.1,0-9.3c0-1.1,0-2.2,0.1-3.3c0-0.6,0-1.1,0-1.7c0-0.1,0-0.3,0-0.4c0-0.4-0.1-0.8-0.3-1.2c0-0.1-0.1-0.2-0.1-0.2
	c0,0,0,0,0-0.1c0-0.1-0.1-0.1-0.1-0.2c0,0,0,0,0-0.1c0-0.1-0.1-0.1-0.1-0.2c0,0,0,0,0,0C10,6.8,9.9,6.7,9.9,6.7c0,0,0,0,0,0
	c0,0,0,0,0,0c0,0,0,0,0,0l0,0c0,0,0,0,0,0C9.8,6.6,9.7,6.5,9.6,6.4c0,0,0,0,0,0C9.5,6.3,9.5,6.2,9.4,6.2C9.1,5.9,8.9,5.7,8.7,5.4
	C8.5,5.3,8.4,5.2,8.3,5.1c0,0-0.1-0.1-0.1-0.1c-0.1-0.2,0-0.4,0.2-0.4c0,0,0,0,0,0l5.7,0c0.6,0,1.1,0,1.7,0c-0.5,0-1.1,0-1.6,0
	c-0.5,0-1,0-1.5,0c2.8,0,5.5,0,8.3,0c1.5,0,3,0,4.5,0c0,0-0.1,0-0.1,0c0,0,0,0,0,0c0,0,0,0,0,0c0,0,0,0,0,0l0.5,0c0,0,0,0,0,0
	c0,0,0,0,0,0c0.1,0,0.3,0,0.4,0c0,0,0,0,0,0c0.1,0,0.1,0,0.2,0c0,0,0,0,0,0c0.1,0,0.1,0,0.2,0c0,0,0,0,0,0c0.1,0,0.1,0,0.2,0.1
	c0,0,0,0,0,0c0,0,0.1,0,0.1,0.1c0,0,0,0,0.1,0c0,0,0.1,0,0.1,0.1c0,0,0,0,0,0c0,0,0.1,0.1,0.1,0.1c0.2,0.2,0.4,0.5,0.5,0.7
	c0.1,0.3,0.3,0.6,0.3,1c0.1,1-0.6,2-1.6,2.1c0,0,0,0,0,0c0,0-9,0-9,0h-2c-1,0-0.8,0.8-0.8,1.8V13c0,0,0,6.6,0,6.6
	c0,0.8-0.2,1.5,0.8,1.5c2.7,0,5.3,0,8,0c0.4,0,0.9,0,1.3,0c0.2,0,0.4,0,0.6-0.1c0.3-0.1,0.4-0.2,0.6-0.4c0.4-0.4,0.7-1,0.6-1.6
	c0-0.3-0.1-0.7-0.3-1c-0.1-0.3-0.3-0.5-0.5-0.7c0,0-0.1-0.1-0.1-0.1c0,0,0,0,0,0c0,0,0,0,0,0c-0.3-0.3-0.8-0.3-1.2-0.3c0,0,0,0,0,0
	h0c0,0,0,0,0,0c-0.4,0-0.7,0-1.1,0h-1.7h0h0c-0.2,0-0.4-0.1-0.5-0.3l-2.5-3.1c-0.2-0.2,0-0.4,0.2-0.4l2.7,0c0.2,0,0.4,0,0.6,0
	c1.4,0,2.7,0,4.1,0c0.6,0,1.3,0,1.9,0c0.4,0,0.7,0.1,0.9,0.4c0.9,1.7,1.5,3.5,1.6,5.4C30.6,19.9,30.5,20.6,30.3,21.6z"/>
</svg>
